Coordinates
version=1
nRows=13
nColumns=40
inDegrees=yes

Units are S.I. units (second, meters, Newtons, ...)
Angles are in degrees.

endheader
time	pelvis_tilt	pelvis_list	pelvis_rotation	pelvis_tx	pelvis_ty	pelvis_tz	hip_flexion_r	hip_adduction_r	hip_rotation_r	knee_angle_r	knee_angle_r_beta	ankle_angle_r	subtalar_angle_r	mtp_angle_r	hip_flexion_l	hip_adduction_l	hip_rotation_l	knee_angle_l	knee_angle_l_beta	ankle_angle_l	subtalar_angle_l	mtp_angle_l	lumbar_extension	lumbar_bending	lumbar_rotation	arm_flex_r	arm_add_r	arm_rot_r	elbow_flex_r	pro_sup_r	wrist_flex_r	wrist_dev_r	arm_flex_l	arm_add_l	arm_rot_l	elbow_flex_l	pro_sup_l	wrist_flex_l	wrist_dev_l
     44.42928571	     -6.73864078	     -5.18198444	    -14.43425023	      0.97411679	      0.92669622	      0.46859661	     23.54069986	      1.90044304	     -5.88681474	     14.38682031	     14.38682031	      6.12053044	     11.25368080	      3.79434037	      5.85259780	     -5.12442454	    -14.35274974	     19.40108232	     19.40108232	     20.37062953	    -17.13007559	      8.14276252	    -11.60322134	      9.24556875	      2.82523615	    -16.54709666	    -10.75379694	    -18.34322518	     29.49646235	     46.15995554	      0.00000000	      0.00000000	     41.01836588	    -25.80323721	     -6.44279741	     72.76650051	     47.99076162	      0.00000000	      0.00000000
     44.44857143	     -6.76620802	     -5.06256182	    -14.85439436	      0.97404172	      0.92452563	      0.47266299	     23.71341700	      2.17626564	     -5.72561433	     14.17326005	     14.17326005	      5.80594511	     11.94933402	      3.89260833	      5.23007780	     -5.12504667	    -14.72348861	     19.17714546	     19.17714546	     20.86589537	    -17.12314702	      7.84829323	    -11.40016628	      9.19634382	      2.88320900	    -16.44394249	    -10.75897892	    -18.35443335	     29.74559167	     46.15155356	      0.00000000	      0.00000000	     41.95893130	    -26.15942777	     -6.84808483	     73.41183027	     48.03658412	      0.00000000	      0.00000000
     44.46785714	     -6.61602007	     -4.98091114	    -15.18486417	      0.97463850	      0.92282279	      0.47669578	     23.62116769	      2.32819358	     -5.84295361	     14.37663630	     14.37663630	      5.26967091	     12.61674914	      2.32995620	      4.26142815	     -5.12408672	    -15.32472743	     18.71333022	     18.71333022	     20.87995355	    -16.79716752	      6.31144968	    -11.41918344	      9.27032512	      2.66815115	    -16.40519046	    -10.71229753	    -18.45883869	     31.10261416	     46.10738545	      0.00000000	      0.00000000	     41.77588705	    -26.06736273	     -9.02425721	     75.69319634	     48.22098532	      0.00000000	      0.00000000
     44.48714286	     -6.47524011	     -4.81937988	    -15.45041346	      0.97535216	      0.92143573	      0.48091120	     23.80886885	      2.42158809	     -5.43640025	     15.45278698	     15.45278698	      5.24241421	     12.01757156	      1.49242158	      3.37537203	     -5.02585028	    -15.73231464	     18.35048160	     18.35048160	     21.20630360	    -16.56094382	      6.07414256	    -11.32186455	      9.23942415	      2.67613965	    -15.98539495	    -10.68579355	    -18.40049863	     31.20380060	     46.10423237	      0.00000000	      0.00000000	     42.22497958	    -26.20538639	     -9.41478454	     76.05215366	     48.25557353	      0.00000000	      0.00000000
     44.50642857	     -6.40530327	     -4.65681535	    -15.64303047	      0.97633082	      0.92033396	      0.48522603	     24.02639566	      2.52966069	     -4.83589258	     16.73353085	     16.73353085	      5.15654544	     10.96248288	      0.13150843	      2.58076016	     -4.96907086	    -16.14912336	     18.01056231	     18.01056231	     21.37082582	    -16.22569041	      5.78398494	    -11.14398117	      9.25488022	      2.67324763	    -15.46513818	    -10.64143680	    -18.36779264	     31.25553026	     46.10632139	      0.00000000	      0.00000000	     42.36917370	    -26.10724220	    -10.09400724	     76.59972379	     48.30947394	      0.00000000	      0.00000000
     44.52571429	     -6.21591029	     -4.55819763	    -15.70843733	      0.97767491	      0.91977653	      0.48959128	     24.03636931	      2.62939957	     -4.31782574	     18.12868179	     18.12868179	      5.30389794	      9.77374029	     -1.00779942	      1.67748901	     -4.96374560	    -16.49320936	     17.73760774	     17.73760774	     21.46164815	    -15.91448133	      5.61807890	    -11.09897975	      9.33952665	      2.62420765	    -14.95164522	    -10.66698644	    -18.37509223	     31.28948991	     46.11141443	      0.00000000	      0.00000000	     42.34614588	    -25.97907358	    -10.67532637	     76.99013147	     48.35285384	      0.00000000	      0.00000000
     44.54500000	     -6.11323119	     -4.49623743	    -15.69208015	      0.97916298	      0.91960595	      0.49417823	     23.79949949	      2.91106323	     -3.37880186	     18.95543557	     18.95543557	      4.65262343	      7.68761660	     -3.75230733	      0.91832031	     -5.09661458	    -16.91568359	     17.57979586	     17.57979586	     21.30504075	    -15.44897212	      4.97106715	    -10.97800100	      9.48457234	      2.02934693	    -13.90608648	    -10.72700664	    -18.48038810	     30.82056687	     46.15575451	      0.00000000	      0.00000000	     41.47866335	    -25.80083010	    -12.70470761	     78.23941399	     48.49032456	      0.00000000	      0.00000000
     44.56428571	     -5.96467927	     -4.33949051	    -15.60441203	      0.98075742	      0.91984436	      0.49864878	     23.61797296	      2.92927725	     -3.00180767	     20.05114956	     20.05114956	      5.00728262	      6.73043743	     -4.14133011	      0.18229280	     -5.08861210	    -17.12388648	     17.46327115	     17.46327115	     21.17808141	    -15.16352804	      5.01730020	    -10.88138992	      9.51138626	      1.99594774	    -13.43896540	    -10.77418947	    -18.48806308	     30.84067360	     46.16101281	      0.00000000	      0.00000000	     41.21780372	    -25.58141686	    -12.82786591	     78.30607439	     48.49487747	      0.00000000	      0.00000000
     44.58357143	     -5.82494826	     -4.28194079	    -15.44888573	      0.98238791	      0.92045361	      0.50328831	     23.23554239	      3.08607903	     -2.55595949	     20.80906003	     20.80906003	      5.36008878	      5.66057807	     -4.24484894	     -0.43259520	     -5.26832856	    -17.33211872	     17.60144236	     17.60144236	     20.97573318	    -14.89104554	      5.03927899	    -10.80105070	      9.60967785	      1.89047538	    -13.01386723	    -10.86797446	    -18.53684106	     30.86170575	     46.16871455	      0.00000000	      0.00000000	     40.83215672	    -25.28184298	    -13.06281938	     78.34530590	     48.50549014	      0.00000000	      0.00000000
     44.60285714	     -5.74322844	     -4.20555508	    -15.17600886	      0.98390405	      0.92134567	      0.50789275	     22.67802756	      3.15489823	     -2.51780587	     21.07752871	     21.07752871	      5.67485814	      5.22821492	     -4.26878421	     -0.83140994	     -5.48844718	    -17.30444959	     17.94098309	     17.94098309	     20.69438371	    -14.76288015	      5.06868620	    -10.67301673	      9.66329525	      1.84696114	    -12.55189354	    -10.96768816	    -18.55823237	     30.98856529	     46.16933332	      0.00000000	      0.00000000	     40.30810295	    -24.80531374	    -13.02108463	     78.24824563	     48.49611345	      0.00000000	      0.00000000
     44.62214286	     -5.71142755	     -4.07259494	    -14.90779196	      0.98525163	      0.92236462	      0.51258188	     22.12250588	      3.18742539	     -2.52797275	     21.17191088	     21.17191088	      6.06083856	      4.94465856	     -4.30456664	     -1.09055880	     -5.70226655	    -17.35620434	     18.36824189	     18.36824189	     20.21173561	    -14.68502277	      5.16312099	    -10.54868621	      9.64588670	      1.80555447	    -12.26356796	    -11.08976826	    -18.58350295	     31.07890740	     46.17019684	      0.00000000	      0.00000000	     39.89868327	    -24.45138578	    -12.97593589	     78.14710746	     48.48776354	      0.00000000	      0.00000000
     44.64142857	     -5.71507643	     -4.31052644	    -14.60499790	      0.98627704	      0.92347158	      0.51770685	     21.37278363	      3.77587150	     -2.08967966	     20.96737298	     20.96737298	      6.54900186	      3.75267147	     -3.08167267	     -0.95531272	     -6.63103884	    -17.70909011	     19.74729364	     19.74729364	     19.96071587	    -14.07905227	      4.36511398	    -10.48085488	      9.98005175	      1.43156875	    -11.51353777	    -11.28210799	    -18.95582475	     31.02004392	     46.20874395	      0.00000000	      0.00000000	     38.93965209	    -23.93263493	    -14.13734775	     78.10441238	     48.54610495	      0.00000000	      0.00000000
     44.66071429	     -5.68797146	     -4.34314360	    -14.27785591	      0.98718888	      0.92468153	      0.52266179	     20.58250260	      3.96737477	     -2.35857133	     20.58318661	     20.58318661	      6.87406117	      3.89708499	     -2.90978586	     -0.80797056	     -7.20241580	    -17.51728290	     20.94956060	     20.94956060	     19.42627810	    -14.27575872	      4.17564709	    -10.42774639	     10.02219955	      1.40351481	    -11.11164690	    -11.49071075	    -19.03274528	     31.12872108	     46.21400508	      0.00000000	      0.00000000	     38.22147139	    -23.43438130	    -14.05982883	     77.85145471	     48.52877588	      0.00000000	      0.00000000
